<?xml version="1.0" encoding="utf-8"?>
<!-- Generator: Adobe Illustrator 23.0.6, SVG Export Plug-In . SVG Version: 6.00 Build 0)  -->
<svg version="1.1" id="Слой_1" xmlns="http://www.w3.org/2000/svg" x="0px"
     y="0px"
     viewBox="0 0 980 692.3" style="enable-background:new 0 0 980 692.3;" xml:space="preserve">
<title>Ресурс 1</title>
    <g>
	<g id="Слой_1-2">
		<path d="M375.3,0.4c-3.6,0.4-15.3,1.7-25.9,2.9C249.5,14,153.9,49.4,99.5,95.8c-14.7,12.4-36.5,37.5-49.2,56.5
			C4.2,221.6-10,314.8,6.8,439.7c3.8,28.1,11.7,67.4,15.5,77c5,12.4,7.5,13,62,13h48.1l26.6,25.8c77.6,74.9,158.4,122,230.6,134.2
			c26.8,4.6,70.7,2.9,98.6-3.8c58.4-13.8,105.5-37.7,205.6-105.3l49.8-33.3l21.1,19.7c40.8,38.1,73.7,62.6,102.4,76.4
			c14.9,7.1,17.8,7.8,31.8,7.8c13.6,0,16.8-0.8,28.2-6.3c23.2-11.3,41-37.2,49.6-71.4c8.8-34.5-0.6-77.2-22.2-101.1
			c-3.5-3.8-50.2-36.6-104-73l-97.7-66.1L719,223.3c-18.6-60.5-36.2-114.5-38.7-119.7c-14.2-28.2-38.1-52.1-64.9-65.7
			c-10.9-5.5-50-18.8-71.6-24.3c-41-10.5-59.2-12.8-112.1-13.4C404.4-0.2,378.9,0,375.3,0.4z M494,44.8c41.2,7.1,85.4,20.3,108,32.4
			c14.2,7.8,33.5,28,40.2,42.1c3.1,6.5,19.2,55.7,35.6,109.1l29.9,97.3l-12.5,1.5c-104,12.3-215.2,35.4-331.5,68.6
			c-44.2,12.6-112,35.4-141.3,47.3c-15.5,6.3-23.9,8.8-24.3,7.5c-11.1-34.3-20-69.3-26.6-104.7c-23.5-128.3,1.5-219.6,73.3-267.7
			c34.3-23,62-30.3,141.9-37.5C408.4,38.7,472.5,41.2,494,44.8z M161,106.3c-12.8,17.8-28.1,59.2-33.9,91.2
			c-4.2,23.9-5.6,73.9-2.9,103.4c4.2,44.6,15.3,98.4,30.8,148.6c3.3,10.1,5.7,19.3,5.7,20.3s-6.3,5.9-14.2,10.7l-14.2,9H57.6
			l-1.9-7.3c-1-3.8-3.6-17.8-5.7-31C33.1,347,40,259.7,70,199.9c17.2-34.3,46.5-68.2,76-87.9c9.4-6.1,17.4-11.3,17.8-11.3
			C164.4,100.7,163.1,103.2,161,106.3z M789.5,407.3c32.9,22.2,60.9,41.5,62.2,42.9c2.1,1.9,0.2,3.1-10.7,5.8
			c-38.7,9.4-78.9,30.6-161.2,85.4c-75.8,50.2-96.9,63-130.2,79.1c-43.1,20.5-73.5,29.1-111.1,31c-73.1,3.8-154.7-36-244.1-118.7
			c-11.1-10.3-20.1-19.3-20.1-20.3c0-2.3,30.8-17.6,58-28.5c130.2-52.7,389.1-115.1,483.5-116.8l14.2-0.2L789.5,407.3z M914.7,492.7
			c14.2,6.7,23.9,28.2,24.3,53.2c0.4,33.9-23.5,69.3-43.8,64.9c-11.7-2.5-35.4-17-60.3-37.2c-16.7-13.2-53.6-46.3-53.6-47.9
			c0-1.9,43.3-22,57.6-26.6C869.3,489.3,901.7,486.4,914.7,492.7L914.7,492.7z"/>
	</g>
</g>
</svg>
